<?xml version="1.0" encoding="UTF-8" standalone="no"?>
<!-- Created with Inkscape (http://www.inkscape.org/) -->

<svg
   width="924.35919mm"
   height="342.53745mm"
   viewBox="0 0 924.35919 342.53745"
   version="1.1"
   id="svg1"
   xmlns="http://www.w3.org/2000/svg"
   xmlns:svg="http://www.w3.org/2000/svg">
  <defs
     id="defs1">
    <filter
       style="color-interpolation-filters:sRGB"
       id="filter18"
       x="-0.017040024"
       y="-0.16133556"
       width="1.03408"
       height="1.3226711">
      <feGaussianBlur
         stdDeviation="9.3058111"
         id="feGaussianBlur18" />
    </filter>
  </defs>
  <g
     id="layer1"
     transform="translate(155.23685,253.71754)">
    <g
       id="g18">
      <path
         d="m 150.47852,-37.570312 v 24.074218 c -0.21802,0.02278 -0.43972,0.03115 -0.65625,0.05859 v -0.09961 h -48.62891 v 4.0410152 c -7.074077,-4.2234892 -15.248925,-5.9843752 -24.138673,-5.9843752 -13.517272,0 -25.494741,3.920465 -34.710937,13.2949221 -6.796944,-8.6354791 -15.967084,-13.0722661 -27.173828,-13.0722661 -3.71475,0 -7.341307,0.680655 -10.8964845,1.720704 h -27.7832035 -14.328125 -24.521484 -9.777344 -22.02539 v -11.167969 l -8.695311,-3.845703 c -4.94949,-2.189195 -10.34412,-3.829901 -16.07227,-5.001953 -5.8073,-1.195845 -11.67332,-1.796875 -17.58398,-1.796875 -12.33427,0 -23.63428,3.048483 -33.1582,10.037109 -10.32393,7.535316 -15.79883,17.6675034 -15.79883,30.5390625 0,6.7264475 1.43948,13.1747475 4.6289,19.0332035 h -5.1289 v 43.763671 l 8.70508,3.841797 c 4.91,2.167476 10.11963,3.93849 15.59765,5.339844 l 0.0137,0.002 0.0137,0.0039 c 6.24245,1.584623 13.05908,2.281251 20.29687,2.28125 13.25939,0 25.35474,-3.015017 35.06836,-10.541015 0.91917,-0.70942 1.57398,-1.544241 2.41016,-2.292969 0.54082,0.740863 0.93721,1.554304 1.55273,2.255859 l 0.0488,0.05664 0.0488,0.05273 c 6.702549,7.486894 15.742575,10.691407 25.365231,10.691407 3.696626,0 7.340656,-0.674585 10.916015,-1.720703 h 28.095703 V 100.86133 H 10.791016 V 79.162109 c 0.274991,0.0043 0.55431,0.05273 0.828125,0.05273 12.269178,0 21.839203,-4.898583 29.613281,-14.167969 0.751172,0.789771 1.30882,1.683312 2.138672,2.429687 l 0.01563,0.01563 0.01563,0.01367 c 9.76792,8.733671 22.651583,12.152344 36.816406,12.152344 3.61494,0 7.113378,-0.195507 10.208984,-0.652344 2.74497,-0.366197 5.435648,-0.887273 8.070313,-1.574218 0.94861,-0.231239 1.760483,-0.556262 2.695313,-0.822266 v 1.384766 h 48.62891 V 33.335937 c 0.21457,0.01099 0.46157,0.01484 0.65625,0.0293 v 44.628907 h 38.85156 9.77734 38.96289 v -6.853516 c 8.98657,5.905726 19.82609,8.517578 31.68555,8.517578 3.61493,0 7.11338,-0.195507 10.20898,-0.652344 2.74304,-0.365928 5.43661,-0.887037 8.07227,-1.574218 0.94851,-0.231227 1.75905,-0.554338 2.69336,-0.820313 v 1.382813 h 48.6289 V 53.009766 c 1.99701,4.896302 4.69158,9.486097 8.5586,13.55664 l 0.0332,0.0332 0.0312,0.03516 c 9.07044,9.426133 20.93487,13.300781 34.27539,13.300781 13.39167,0 25.30069,-3.851083 34.33985,-13.369141 0.4425,-0.46579 0.71842,-1.005051 1.13476,-1.482422 0.74048,0.776614 1.28678,1.657999 2.10352,2.392578 l 0.0156,0.01563 0.0156,0.01367 c 9.76907,8.734704 22.65354,12.152344 36.81836,12.152344 3.61494,0 7.11338,-0.195508 10.20898,-0.652344 2.74497,-0.366196 5.43565,-0.887272 8.07031,-1.574218 2.54575,-0.620566 5.15816,-1.372639 7.23438,-2.203125 l 0.0976,-0.03906 0.0957,-0.03906 c 0.59261,-0.246921 1.32883,-0.537459 1.98828,-0.804688 3.21264,1.355455 6.67742,2.55074 10.33789,3.449219 l 0.0137,0.0039 0.0156,0.0039 c 5.331,1.29673 10.83903,1.91211 16.49414,1.91211 5.9984,0 11.82928,-0.644058 17.09765,-2.216797 5.00037,-1.482067 9.66788,-3.674584 13.85352,-6.742188 4.29121,-3.103452 7.70968,-6.948848 10.19336,-11.714843 l 0.0176,-0.03711 0.0195,-0.03711 c 2.42187,-4.712816 3.66992,-9.705623 3.66992,-15.054688 0,-4.596232 -0.87597,-9.157708 -2.7207,-13.443359 V -5.3613281 l -8.22657,-3.9921875 c -3.71326,-1.8020224 -7.88533,-3.1494414 -12.24609,-4.1679684 -4.93194,-1.191584 -10.10828,-1.736329 -15.44141,-1.736329 -5.74518,0 -11.35196,0.69727 -16.61132,2.291016 l -0.0195,0.0059 -0.0195,0.0078 c -4.94038,1.512364 -9.63031,3.7183651 -13.72851,6.8378906 l -0.0547,0.042969 -0.0547,0.041016 c -0.80497,0.6247538 -1.45538,1.4070064 -2.20508,2.0898437 -8.39546,-8.3955947 -19.18247,-11.5390627 -31.24414,-11.5390627 -13.67148,0 -25.78991,3.965727 -35.04687,13.574219 -0.34538,0.3584926 -0.5604,0.7770231 -0.89063,1.14257813 -0.37058,-0.41864643 -0.61088,-0.89513683 -1.00195,-1.30468753 -9.04084,-9.5072646 -20.9444,-13.4121096 -34.32422,-13.4121096 -7.37488,0 -14.22738,1.336602 -20.47656,3.988281 v -0.427734 L 348.88477,-13.4375 c -1.03291,-0.121518 -2.07876,-0.198598 -3.11719,-0.248047 -0.93916,-0.04472 -1.89074,-0.07422 -2.80469,-0.07422 -1.23029,0 -2.41447,0.171564 -3.60352,0.322266 v -0.09961 h -48.6289 v 4.0410152 c -7.07408,-4.2234892 -15.24892,-5.9843752 -24.13867,-5.9843752 -13.67149,0 -25.78992,3.965728 -35.04688,13.574219 -0.11614,0.1205572 -0.1844,0.2634059 -0.29883,0.3847656 -0.56361,-0.8152993 -0.99563,-1.6950348 -1.64453,-2.4667969 -6.99004,-8.3561027 -15.57471,-11.2695317 -25.78125,-11.2695317 -1.61132,0 -3.14656,0.323618 -4.71289,0.511719 v -22.824218 z m 79.12304,33.5820307 c 0.008,0.00942 0.0175,0.014004 0.0254,0.023437 l -0.043,-0.050781 c 0.007,0.00846 0.0105,0.018883 0.0176,0.027344 z m 186.98047,1.9199219 c 0.005,0.00518 0.0107,0.00848 0.0156,0.013672 l -0.0312,-0.033203 c 0.006,0.00622 0.01,0.013305 0.0156,0.019531 z M 532.90039,-13.521484 c 0.014,0.0034 0.029,0.0044 0.043,0.0078 l -0.13477,-0.0332 c 0.0314,0.0073 0.0604,0.01806 0.0918,0.02539 z m 9.29297,84.277343 c -0.0175,0.01266 -0.0293,0.03033 -0.0469,0.04297 l 0.11914,-0.08594 c -0.0228,0.01676 -0.0495,0.02626 -0.0723,0.04297 z m -13.85352,6.742188 c -0.007,0.0022 -0.0141,0.0056 -0.0215,0.0078 l 0.0391,-0.01172 c -0.006,0.0017 -0.012,0.0022 -0.0176,0.0039 z m -53.375,-0.06641 c -0.0487,0.01187 -0.09,0.02925 -0.13867,0.04102 l 0.2832,-0.07031 c -0.0472,0.01243 -0.0973,0.01698 -0.14453,0.0293 z m -8.07031,1.574218 c -0.0518,0.0069 -0.10051,0.0225 -0.15234,0.0293 l 0.26758,-0.03711 c -0.0349,0.0052 -0.0803,0.0027 -0.11524,0.0078 z M 288.03711,77.431641 c -0.0487,0.01188 -0.09,0.02924 -0.13867,0.04102 l 0.2832,-0.07031 c -0.0472,0.01243 -0.0973,0.01698 -0.14453,0.0293 z m -8.07227,1.574218 c -0.0517,0.0069 -0.10056,0.02251 -0.15234,0.0293 l 0.26758,-0.03711 c -0.0349,0.0052 -0.0803,0.0027 -0.11524,0.0078 z M 98.498047,77.431641 c -0.04868,0.01187 -0.09004,0.02925 -0.138672,0.04102 l 0.283203,-0.07031 c -0.04722,0.01243 -0.09728,0.01698 -0.144531,0.0293 z m -8.070313,1.574218 c -0.05179,0.0069 -0.100514,0.0225 -0.152343,0.0293 l 0.267578,-0.03711 c -0.03485,0.0052 -0.08028,0.0027 -0.115235,0.0078 z M -106.27539,68.951172 c -0.003,0.0024 -0.005,0.0055 -0.008,0.0078 l 0.0332,-0.02344 c -0.008,0.0062 -0.0174,0.0095 -0.0254,0.01563 z M -169.67187,-25.3125 c 0.009,-0.0068 0.016,-0.01467 0.0254,-0.02148 l -0.043,0.0332 c 0.006,-0.0042 0.0118,-0.0075 0.0176,-0.01172 z m 937.38281,-12.257812 v 3.71875 h -23.01953 l -7.33594,22.845703 -7.33594,-22.845703 h -52.64062 l 38.45703,111.845703 h 42.48437 l 9.94531,-28.921875 v 28.921875 h 34.30079 14.32812 19.9707 14.32813 34.30078 v -1.71875 c 4.5627,2.175723 9.52957,3.382812 14.81445,3.382812 3.4933,0 7.43504,-0.294784 10.68164,-1.173828 0.44752,-0.119831 0.85442,-0.354775 1.29688,-0.490234 h 26.92383 14.82812 19.47071 14.32812 24.52341 9.7774 38.9629 v -0.851563 c 0.7529,0.206943 1.4677,0.465117 2.2304,0.652344 l 0.014,0.0039 0.016,0.0039 c 5.331,1.29672 10.839,1.91211 16.4942,1.91211 5.9984,0 11.8286,-0.644429 17.0957,-2.216797 4.999,-1.481666 9.6671,-3.672709 13.8554,-6.742188 4.2912,-3.103414 7.7097,-6.948646 10.1934,-11.714843 l 0.02,-0.03711 0.018,-0.03711 c 2.4247,-4.718276 3.668,-9.712628 3.668,-15.054688 0,-4.593137 -0.875,-9.153265 -2.7188,-13.439453 V -5.3613281 l -8.2265,-3.9921875 c -3.7157,-1.8032044 -7.8883,-3.1496864 -12.2481,-4.1679684 -4.9308,-1.191323 -10.1063,-1.736329 -15.4394,-1.736329 -5.7452,0 -11.352,0.69725 -16.6114,2.291016 l -0.02,0.0078 -0.019,0.0059 c -4.9404,1.512359 -9.6303,3.7183347 -13.7285,6.8378906 l -0.055,0.042969 -0.055,0.041016 c -0.964,0.7481988 -1.7582,1.6719872 -2.6426,2.5039062 -0.1184,-0.1459849 -0.1872,-0.3165395 -0.3086,-0.4609375 -6.99,-8.3561297 -15.5747,-11.2695317 -25.7812,-11.2695317 -3.7034,0 -7.2456,0.687932 -10.7207,1.720704 H 988.39453 V -37.570312 H 938.6543 V -8.2421875 C 930.72827,-13.162736 919.66954,-15.3125 908.63281,-15.3125 c -5.21729,0 -10.39554,0.463878 -15.5332,1.390625 -3.07913,0.532054 -5.31459,1.074615 -7.60547,1.609375 v -25.257812 h -34.30078 -14.32813 -19.41601 -14.88281 z m 125.38867,23.648437 c 0.0268,-0.0046 0.0395,-0.009 0.0664,-0.01367 l -0.1211,0.02148 c 0.0182,-0.0033 0.0365,-0.0045 0.0547,-0.0078 z m 159.53319,9.9335937 c 0.01,0.00942 0.017,0.014004 0.025,0.023437 l -0.043,-0.050781 c 0.01,0.00846 0.011,0.018883 0.018,0.027344 z m 48.8789,-9.5332027 c 0.014,0.0034 0.029,0.0044 0.043,0.0078 l -0.1348,-0.0332 c 0.031,0.0073 0.06,0.01806 0.092,0.02539 z m 9.2949,84.277343 c -0.017,0.01266 -0.029,0.03033 -0.047,0.04297 l 0.1191,-0.08594 c -0.023,0.01677 -0.049,0.02626 -0.072,0.04297 z m -13.8554,6.742188 c -0.01,0.0022 -0.014,0.0056 -0.022,0.0078 l 0.039,-0.01172 c -0.01,0.0017 -0.012,0.0022 -0.018,0.0039 z m -185.96097,0.986328 c -0.0128,0.0034 -0.0243,0.01027 -0.0371,0.01367 l 0.0801,-0.02148 c -0.0133,0.0036 -0.0297,0.0042 -0.043,0.0078 z M 613.0332,-35.572266 c -6.06965,0 -11.9908,0.763436 -17.44531,2.554688 -4.90411,1.576176 -9.77896,3.903512 -13.75977,7.386719 l -0.0254,0.02148 -0.0254,0.02344 c -3.59444,3.175091 -6.60412,6.986442 -8.57226,11.679687 -1.68737,4.0237572 -2.58008,8.2812122 -2.58008,12.6953125 0,3.3405385 0.38605,6.8245342 1.41016,10.1894531 l 0.0137,0.042969 0.0137,0.042969 c 0.71947,2.3125819 1.74601,4.4631819 2.94531,6.5468749 -0.19538,0.248134 -0.42518,0.458633 -0.61523,0.712891 -2.26094,2.987268 -4.04698,6.240643 -5.39258,9.716797 l -0.0371,0.0957 -0.0352,0.09766 c -1.60277,4.320514 -2.1875,8.885444 -2.1875,13.347656 0,11.946941 4.09263,21.588407 13.17188,29.494141 l 0.0391,0.03516 0.041,0.0332 c 8.85672,7.600035 19.94907,10.570313 32.04101,10.570313 5.94586,0 11.69801,-0.887103 17.30664,-2.722657 1.82648,-0.597754 3.52128,-1.511496 5.25782,-2.326171 l 3.43359,3.328125 h 45.21484 V 55.947266 l -16.0039,-14.970704 c 0.53804,-1.296936 1.19533,-2.556481 1.60742,-3.888671 0.8278,-2.575215 1.39109,-5.330536 1.76367,-8.097657 0.38364,-2.628731 0.64453,-5.262892 0.64453,-7.667968 V 0.56054687 h -18.02539 c 0.14217,-1.23513543 0.48828,-2.41797297 0.48828,-3.65820317 0,-4.828481 -1.08642,-9.4114617 -3.3457,-13.7617187 -2.21836,-4.381598 -5.28794,-7.916116 -9.14453,-10.757812 l -0.0977,-0.07227 -0.0976,-0.06836 c -3.80143,-2.706109 -8.08991,-4.580054 -12.53516,-5.857422 -4.80866,-1.381798 -10.10275,-1.957032 -15.4668,-1.957032 z m 37.3418,18.712891 c 0.0236,0.04661 0.0606,0.08015 0.084,0.126953 l -0.13476,-0.261719 c 0.023,0.04369 0.0281,0.09103 0.0508,0.134766 z m 20.23828,45.849609 c -0.006,0.04217 -0.004,0.08088 -0.01,0.123047 l 0.0273,-0.201172 c -0.004,0.02674 -0.014,0.05139 -0.0176,0.07813 z m -1.76367,8.097657 c -0.0134,0.04167 -0.0158,0.08929 -0.0293,0.130859 l 0.0762,-0.246094 c -0.0121,0.03941 -0.0347,0.07585 -0.0469,0.115235 z M 574.39258,16.324219 c 0.0155,-0.02046 0.0255,-0.04402 0.041,-0.06445 l -0.0859,0.115234 c 0.0136,-0.01834 0.0312,-0.03248 0.0449,-0.05078 z m 21.19531,-49.341797 c 0.022,-0.0071 0.0425,-0.02031 0.0644,-0.02734 l -0.12695,0.04102 c 0.02,-0.0066 0.0425,-0.0071 0.0625,-0.01367 z m -451.93945,20.896484 c -0.0209,0.0067 -0.0397,0.02063 -0.0606,0.02734 -0.0346,0.01142 -0.0729,0.01583 -0.10742,0.02734 z m 189.53711,0 c -0.0209,0.0067 -0.0397,0.02063 -0.0605,0.02734 -0.0346,0.01142 -0.0729,0.01583 -0.10742,0.02734 z m -197.2168,3.3945315 c -0.0624,0.035633 -0.12129,0.088915 -0.18359,0.125 -0.0422,0.025287 -0.0907,0.035061 -0.13282,0.060547 z m 189.53711,0 c -0.0625,0.035729 -0.12114,0.088824 -0.18359,0.125 -0.0422,0.025287 -0.0907,0.035061 -0.13282,0.060547 z m 327.05859,14.4804687 -0.0566,0.2382813 c 0.009,-0.03662 0.007,-0.07854 0.0156,-0.1152344 0.01,-0.042355 0.0312,-0.080634 0.041,-0.1230469 z m -120.24804,6.7773438 0.13867,0.04492 c -0.0204,-0.0068 -0.0421,-0.0089 -0.0625,-0.01563 -0.0259,-0.0084 -0.0503,-0.02095 -0.0762,-0.0293 z m 568.61329,0 0.1387,0.04492 c -0.02,-0.0068 -0.042,-0.0089 -0.062,-0.01563 -0.026,-0.0084 -0.05,-0.02095 -0.076,-0.0293 z m -215.36329,1.837891 c -0.007,0.0035 -0.0123,0.01019 -0.0195,0.01367 -0.0123,0.0059 -0.0268,0.0077 -0.0391,0.01367 z m -309.58594,2.976562 c 0.0124,0.01907 0.0305,0.03369 0.043,0.05273 0.0192,0.02905 0.0314,0.06083 0.0508,0.08984 z m -501.238283,4.501953 2.716797,2.876953 c -0.04271,0.09881 -0.115234,0.238282 -0.115234,0.238282 l -0.08594,0.0918 c 0,0 -1.502746,0.870474 -1.777343,1.052735 l -2.904297,-1.935547 c -0.0043,-0.01122 -0.02598,-0.0462 -0.0332,-0.06445 z m 189.537113,0 2.71679,2.876953 c -0.0427,0.09881 -0.11523,0.238282 -0.11523,0.238282 l -0.0859,0.0918 c 0,0 -1.50274,0.870473 -1.77734,1.052735 l -2.9043,-1.935547 c -0.004,-0.01122 -0.026,-0.0462 -0.0332,-0.06445 z m 186.92968,0 2.7168,2.876953 c -0.0427,0.09881 -0.11523,0.238282 -0.11523,0.238282 l -0.0859,0.0918 c 0,0 -1.50275,0.870475 -1.77734,1.052735 l -2.90625,-1.935547 c -0.004,-0.01114 -0.0241,-0.04642 -0.0312,-0.06445 z m 97.96485,1.572266 0.13476,0.160156 c -0.0267,-0.03271 -0.0591,-0.05728 -0.0859,-0.08984 -0.0189,-0.02259 -0.0299,-0.04776 -0.0488,-0.07031 z m 568.61327,0 0.1348,0.160156 c -0.027,-0.03271 -0.059,-0.05728 -0.086,-0.08984 -0.019,-0.0226 -0.03,-0.04775 -0.049,-0.07031 z M 909.78125,37.035156 c -0.38256,0.102649 1.4668,0.820313 1.4668,0.820313 l 0.32226,0.224609 3.46875,4.501953 0.0742,0.232422 -5.625,-5.085937 z m -244.11523,7.798828 -0.10157,0.199219 c 0.0148,-0.02849 0.0224,-0.05938 0.0371,-0.08789 0.0194,-0.03856 0.0451,-0.07269 0.0645,-0.111328 z m -167.02149,7.492188 c 0.0175,0.0056 0.0391,0.0081 0.0566,0.01367 0.0173,0.0054 0.0334,0.01414 0.0508,0.01953 z m 568.61327,0 c 0.017,0.0056 0.039,0.0081 0.057,0.01367 0.017,0.0054 0.033,0.01414 0.051,0.01953 z M 41.535156,64.742187 l -0.0332,0.04102 c 0.0061,-0.0074 0.0095,-0.01607 0.01563,-0.02344 0.0055,-0.0067 0.01207,-0.0109 0.01758,-0.01758 z"
         id="path14"
         transform="matrix(0.68201011,0,0,1.8707719,-13.17099,-141.65034)"
         class="fromclone"
         style="fill:#1a1a1a;filter:url(#filter18)" />
      <path
         d="m 150.47852,-37.570312 v 24.074218 c -0.21802,0.02278 -0.43972,0.03115 -0.65625,0.05859 v -0.09961 h -48.62891 v 4.0410152 c -7.074077,-4.2234892 -15.248925,-5.9843752 -24.138673,-5.9843752 -13.517272,0 -25.494741,3.920465 -34.710937,13.2949221 -6.796944,-8.6354791 -15.967084,-13.0722661 -27.173828,-13.0722661 -3.71475,0 -7.341307,0.680655 -10.8964845,1.720704 h -27.7832035 -14.328125 -24.521484 -9.777344 -22.02539 v -11.167969 l -8.695311,-3.845703 c -4.94949,-2.189195 -10.34412,-3.829901 -16.07227,-5.001953 -5.8073,-1.195845 -11.67332,-1.796875 -17.58398,-1.796875 -12.33427,0 -23.63428,3.048483 -33.1582,10.037109 -10.32393,7.535316 -15.79883,17.6675034 -15.79883,30.5390625 0,6.7264475 1.43948,13.1747475 4.6289,19.0332035 h -5.1289 v 43.763671 l 8.70508,3.841797 c 4.91,2.167476 10.11963,3.93849 15.59765,5.339844 l 0.0137,0.002 0.0137,0.0039 c 6.24245,1.584623 13.05908,2.28125 20.29687,2.28125 13.25939,0 25.35474,-3.015017 35.06836,-10.541015 0.91917,-0.70942 1.57398,-1.544241 2.41016,-2.292969 0.54082,0.740863 0.93721,1.554304 1.55273,2.255859 l 0.0488,0.05664 0.0488,0.05273 c 6.702549,7.486894 15.742575,10.691407 25.365231,10.691407 3.696626,0 7.340656,-0.674585 10.916015,-1.720703 h 28.095703 V 100.86133 H 10.791016 V 79.162109 c 0.274991,0.0043 0.55431,0.05273 0.828125,0.05273 12.269178,0 21.839203,-4.898583 29.613281,-14.167969 0.751172,0.789771 1.30882,1.683312 2.138672,2.429687 l 0.01563,0.01563 0.01563,0.01367 c 9.76792,8.733671 22.651583,12.152344 36.816406,12.152344 3.61494,0 7.113378,-0.195507 10.208984,-0.652344 2.74497,-0.366197 5.435648,-0.887273 8.070313,-1.574218 0.94861,-0.231239 1.760483,-0.556262 2.695313,-0.822266 v 1.384766 h 48.62891 V 33.335937 c 0.21457,0.01099 0.46157,0.01484 0.65625,0.0293 v 44.628907 h 38.85156 9.77734 38.96289 v -6.853516 c 8.98657,5.905726 19.82609,8.517578 31.68555,8.517578 3.61493,0 7.11338,-0.195507 10.20898,-0.652344 2.74304,-0.365928 5.43661,-0.887037 8.07227,-1.574218 0.94851,-0.231227 1.75905,-0.554338 2.69336,-0.820313 v 1.382813 h 48.6289 V 53.009766 c 1.99701,4.896302 4.69158,9.486097 8.5586,13.55664 l 0.0332,0.0332 0.0312,0.03516 c 9.07044,9.426133 20.93487,13.300781 34.27539,13.300781 13.39167,0 25.30069,-3.851083 34.33985,-13.369141 0.4425,-0.46579 0.71842,-1.005051 1.13476,-1.482422 0.74048,0.776614 1.28678,1.657999 2.10352,2.392578 l 0.0156,0.01563 0.0156,0.01367 c 9.76907,8.734704 22.65354,12.152344 36.81836,12.152344 3.61494,0 7.11338,-0.195508 10.20898,-0.652344 2.74497,-0.366196 5.43565,-0.887272 8.07031,-1.574218 2.54575,-0.620566 5.15816,-1.372639 7.23438,-2.203125 l 0.0976,-0.03906 0.0957,-0.03906 c 0.59261,-0.246921 1.32883,-0.537459 1.98828,-0.804688 3.21264,1.355455 6.67742,2.55074 10.33789,3.449219 l 0.0137,0.0039 0.0156,0.0039 c 5.331,1.29673 10.83903,1.91211 16.49414,1.91211 5.9984,0 11.82928,-0.644058 17.09765,-2.216797 5.00037,-1.482067 9.66788,-3.674584 13.85352,-6.742188 4.29121,-3.103452 7.70968,-6.948848 10.19336,-11.714843 l 0.0176,-0.03711 0.0195,-0.03711 c 2.42187,-4.712816 3.66992,-9.705623 3.66992,-15.054688 0,-4.596232 -0.87597,-9.157708 -2.7207,-13.443359 V -5.3613281 l -8.22657,-3.9921875 c -3.71325,-1.8020224 -7.88533,-3.1494414 -12.24609,-4.1679684 -4.93194,-1.191584 -10.10828,-1.736328 -15.44141,-1.736329 -5.74518,0 -11.35196,0.69727 -16.61132,2.291016 l -0.0195,0.0059 -0.0195,0.0078 c -4.94038,1.512364 -9.63031,3.7183651 -13.72851,6.8378906 l -0.0547,0.042969 -0.0547,0.041016 c -0.80497,0.6247538 -1.45538,1.4070064 -2.20508,2.0898437 -8.39546,-8.3955947 -19.18247,-11.5390627 -31.24414,-11.5390627 -13.67148,0 -25.78991,3.965727 -35.04687,13.574219 -0.34538,0.3584926 -0.5604,0.7770231 -0.89063,1.14257813 -0.37058,-0.41864643 -0.61088,-0.89513683 -1.00195,-1.30468753 -9.04084,-9.5072646 -20.9444,-13.4121096 -34.32422,-13.4121096 -7.37488,0 -14.22738,1.336602 -20.47656,3.988281 v -0.427734 L 348.88477,-13.4375 c -1.03291,-0.121518 -2.07876,-0.198598 -3.11719,-0.248047 -0.93916,-0.04472 -1.89074,-0.07422 -2.80469,-0.07422 -1.23029,0 -2.41447,0.171564 -3.60352,0.322266 v -0.09961 h -48.6289 v 4.0410152 c -7.07408,-4.2234892 -15.24892,-5.9843752 -24.13867,-5.9843752 -13.67149,0 -25.78992,3.965728 -35.04688,13.574219 -0.11614,0.1205572 -0.1844,0.2634059 -0.29883,0.3847656 -0.56361,-0.8152993 -0.99563,-1.6950348 -1.64453,-2.4667969 -6.99004,-8.3561027 -15.57471,-11.2695317 -25.78125,-11.2695317 -1.61132,0 -3.14656,0.323618 -4.71289,0.511719 v -22.824218 z m 79.12304,33.5820307 c 0.008,0.00942 0.0175,0.014004 0.0254,0.023437 l -0.043,-0.050781 c 0.007,0.00846 0.0105,0.018883 0.0176,0.027344 z m 186.98047,1.9199219 c 0.005,0.00518 0.0107,0.00848 0.0156,0.013672 l -0.0312,-0.033203 c 0.006,0.00622 0.01,0.013305 0.0156,0.019531 z M 532.90039,-13.521484 c 0.014,0.0034 0.029,0.0044 0.043,0.0078 l -0.13477,-0.0332 c 0.0314,0.0073 0.0604,0.01806 0.0918,0.02539 z m 9.29297,84.277343 c -0.0175,0.01266 -0.0293,0.03033 -0.0469,0.04297 l 0.11914,-0.08594 c -0.0228,0.01676 -0.0495,0.02626 -0.0723,0.04297 z m -13.85352,6.742188 c -0.007,0.0022 -0.0141,0.0056 -0.0215,0.0078 l 0.0391,-0.01172 c -0.006,0.0017 -0.012,0.0022 -0.0176,0.0039 z m -53.375,-0.06641 c -0.0487,0.01187 -0.09,0.02925 -0.13867,0.04102 l 0.2832,-0.07031 c -0.0472,0.01243 -0.0973,0.01698 -0.14453,0.0293 z m -8.07031,1.574218 c -0.0518,0.0069 -0.10051,0.0225 -0.15234,0.0293 l 0.26758,-0.03711 c -0.0349,0.0052 -0.0803,0.0027 -0.11524,0.0078 z M 288.03711,77.431641 c -0.0487,0.01188 -0.09,0.02924 -0.13867,0.04102 l 0.2832,-0.07031 c -0.0472,0.01243 -0.0973,0.01698 -0.14453,0.0293 z m -8.07227,1.574218 c -0.0517,0.0069 -0.10056,0.02251 -0.15234,0.0293 l 0.26758,-0.03711 c -0.0349,0.0052 -0.0803,0.0027 -0.11524,0.0078 z M 98.498047,77.431641 c -0.04868,0.01187 -0.09004,0.02925 -0.138672,0.04102 l 0.283203,-0.07031 c -0.04722,0.01243 -0.09728,0.01698 -0.144531,0.0293 z m -8.070313,1.574218 c -0.05179,0.0069 -0.100514,0.0225 -0.152343,0.0293 l 0.267578,-0.03711 c -0.03485,0.0052 -0.08028,0.0027 -0.115235,0.0078 z M -106.27539,68.951172 c -0.003,0.0024 -0.005,0.0055 -0.008,0.0078 l 0.0332,-0.02344 c -0.008,0.0062 -0.0174,0.0095 -0.0254,0.01563 z M -169.67187,-25.3125 c 0.009,-0.0068 0.016,-0.01467 0.0254,-0.02148 l -0.043,0.0332 c 0.006,-0.0042 0.0118,-0.0075 0.0176,-0.01172 z m 937.38281,-12.257812 v 3.71875 h -23.01953 l -7.33594,22.845703 -7.33594,-22.845703 h -52.64062 l 38.45703,111.845703 h 42.48437 l 9.94531,-28.921875 v 28.921875 h 34.30079 14.32812 19.9707 14.32813 34.30078 v -1.71875 c 4.5627,2.175723 9.52957,3.382812 14.81445,3.382812 3.4933,0 7.43504,-0.294784 10.68164,-1.173828 0.44752,-0.119831 0.85442,-0.354775 1.29688,-0.490234 h 26.92383 14.82812 19.47071 14.32812 24.52341 9.7774 38.9629 v -0.851563 c 0.7529,0.206943 1.4677,0.465117 2.2304,0.652344 l 0.014,0.0039 0.016,0.0039 c 5.331,1.29672 10.839,1.91211 16.4942,1.91211 5.9984,0 11.8286,-0.644429 17.0957,-2.216797 4.999,-1.481666 9.6671,-3.672709 13.8554,-6.742188 4.2912,-3.103414 7.7097,-6.948646 10.1934,-11.714843 l 0.02,-0.03711 0.018,-0.03711 c 2.4247,-4.718276 3.668,-9.712628 3.668,-15.054688 0,-4.593137 -0.875,-9.153265 -2.7188,-13.439453 V -5.3613281 l -8.2265,-3.9921875 c -3.7157,-1.8032044 -7.8883,-3.1496864 -12.2481,-4.1679684 -4.9308,-1.191323 -10.1063,-1.736329 -15.4394,-1.736329 -5.7452,0 -11.352,0.69725 -16.6114,2.291016 l -0.02,0.0078 -0.019,0.0059 c -4.9404,1.512359 -9.6303,3.7183347 -13.7285,6.8378906 l -0.055,0.042969 -0.055,0.041016 c -0.964,0.7481988 -1.7582,1.6719872 -2.6426,2.5039062 -0.1184,-0.1459849 -0.1872,-0.3165395 -0.3086,-0.4609375 -6.99,-8.3561297 -15.5747,-11.2695317 -25.7812,-11.2695317 -3.7034,0 -7.2456,0.687932 -10.7207,1.720704 H 988.39453 V -37.570312 H 938.6543 V -8.2421875 C 930.72827,-13.162736 919.66954,-15.3125 908.63281,-15.3125 c -5.21729,0 -10.39554,0.463878 -15.5332,1.390625 -3.07913,0.532054 -5.31459,1.074615 -7.60547,1.609375 v -25.257812 h -34.30078 -14.32813 -19.41601 -14.88281 z m 125.38867,23.648437 c 0.0268,-0.0046 0.0395,-0.009 0.0664,-0.01367 l -0.1211,0.02148 c 0.0182,-0.0033 0.0365,-0.0045 0.0547,-0.0078 z m 159.53319,9.9335937 c 0.01,0.00942 0.017,0.014004 0.025,0.023437 l -0.043,-0.050781 c 0.01,0.00846 0.011,0.018883 0.018,0.027344 z m 48.8789,-9.5332027 c 0.014,0.0034 0.029,0.0044 0.043,0.0078 l -0.1348,-0.0332 c 0.031,0.0073 0.06,0.01806 0.092,0.02539 z m 9.2949,84.277343 c -0.017,0.01266 -0.029,0.03033 -0.047,0.04297 l 0.1191,-0.08594 c -0.023,0.01677 -0.049,0.02626 -0.072,0.04297 z m -13.8554,6.742188 c -0.01,0.0022 -0.014,0.0056 -0.022,0.0078 l 0.039,-0.01172 c -0.01,0.0017 -0.012,0.0022 -0.018,0.0039 z m -185.96097,0.986328 c -0.0128,0.0034 -0.0243,0.01027 -0.0371,0.01367 l 0.0801,-0.02148 c -0.0133,0.0036 -0.0297,0.0042 -0.043,0.0078 z M 613.0332,-35.572266 c -6.06965,0 -11.9908,0.763436 -17.44531,2.554688 -4.90411,1.576176 -9.77896,3.903512 -13.75977,7.386719 l -0.0254,0.02148 -0.0254,0.02344 c -3.59444,3.175091 -6.60412,6.986442 -8.57226,11.679687 -1.68737,4.0237572 -2.58008,8.2812122 -2.58008,12.6953125 0,3.3405385 0.38605,6.8245342 1.41016,10.1894531 l 0.0137,0.042969 0.0137,0.042969 c 0.71947,2.3125819 1.74601,4.4631819 2.94531,6.5468749 -0.19538,0.248134 -0.42518,0.458633 -0.61523,0.712891 -2.26094,2.987268 -4.04698,6.240643 -5.39258,9.716797 l -0.0371,0.0957 -0.0352,0.09766 c -1.60277,4.320514 -2.1875,8.885444 -2.1875,13.347656 0,11.946941 4.09263,21.588407 13.17188,29.494141 l 0.0391,0.03516 0.041,0.0332 c 8.85672,7.600035 19.94907,10.570313 32.04101,10.570313 5.94586,0 11.69801,-0.887103 17.30664,-2.722657 1.82648,-0.597754 3.52128,-1.511496 5.25782,-2.326171 l 3.43359,3.328125 h 45.21484 V 55.947266 l -16.0039,-14.970704 c 0.53804,-1.296936 1.19533,-2.556481 1.60742,-3.888671 0.8278,-2.575215 1.39109,-5.330536 1.76367,-8.097657 0.38364,-2.628731 0.64453,-5.262892 0.64453,-7.667968 V 0.56054687 h -18.02539 c 0.14217,-1.23513543 0.48828,-2.41797297 0.48828,-3.65820317 0,-4.828481 -1.08642,-9.4114617 -3.3457,-13.7617187 -2.21836,-4.381598 -5.28794,-7.916116 -9.14453,-10.757812 l -0.0977,-0.07227 -0.0976,-0.06836 c -3.80143,-2.706109 -8.08991,-4.580054 -12.53516,-5.857422 -4.80866,-1.381798 -10.10275,-1.957032 -15.4668,-1.957032 z m 37.3418,18.712891 c 0.0236,0.04661 0.0606,0.08015 0.084,0.126953 l -0.13476,-0.261719 c 0.023,0.04369 0.0281,0.09103 0.0508,0.134766 z m 20.23828,45.849609 c -0.006,0.04217 -0.004,0.08088 -0.01,0.123047 l 0.0273,-0.201172 c -0.004,0.02674 -0.014,0.05139 -0.0176,0.07813 z m -1.76367,8.097657 c -0.0134,0.04167 -0.0158,0.08929 -0.0293,0.130859 l 0.0762,-0.246094 c -0.0121,0.03941 -0.0347,0.07585 -0.0469,0.115235 z M 574.39258,16.324219 c 0.0155,-0.02046 0.0255,-0.04402 0.041,-0.06445 l -0.0859,0.115234 c 0.0136,-0.01834 0.0312,-0.03248 0.0449,-0.05078 z m 21.19531,-49.341797 c 0.022,-0.0071 0.0425,-0.02031 0.0644,-0.02734 l -0.12695,0.04102 c 0.02,-0.0066 0.0425,-0.0071 0.0625,-0.01367 z m -451.93945,20.896484 c -0.0209,0.0067 -0.0397,0.02063 -0.0606,0.02734 -0.0346,0.01142 -0.0729,0.01583 -0.10742,0.02734 z m 189.53711,0 c -0.0209,0.0067 -0.0397,0.02063 -0.0605,0.02734 -0.0346,0.01142 -0.0729,0.01583 -0.10742,0.02734 z m -197.2168,3.3945315 c -0.0624,0.035633 -0.12129,0.088915 -0.18359,0.125 -0.0422,0.025287 -0.0907,0.035061 -0.13282,0.060547 z m 189.53711,0 c -0.0625,0.035729 -0.12114,0.088824 -0.18359,0.125 -0.0422,0.025287 -0.0907,0.035061 -0.13282,0.060547 z m 327.05859,14.4804687 -0.0566,0.2382813 c 0.009,-0.03662 0.007,-0.07854 0.0156,-0.1152344 0.01,-0.042355 0.0312,-0.080634 0.041,-0.1230469 z m -120.24804,6.7773438 0.13867,0.04492 c -0.0204,-0.0068 -0.0421,-0.0089 -0.0625,-0.01563 -0.0259,-0.0084 -0.0503,-0.02095 -0.0762,-0.0293 z m 568.61329,0 0.1387,0.04492 c -0.02,-0.0068 -0.042,-0.0089 -0.062,-0.01563 -0.026,-0.0084 -0.05,-0.02095 -0.076,-0.0293 z m -215.36329,1.837891 c -0.007,0.0035 -0.0123,0.01019 -0.0195,0.01367 -0.0123,0.0059 -0.0268,0.0077 -0.0391,0.01367 z m -309.58594,2.976562 c 0.0124,0.01907 0.0305,0.03369 0.043,0.05273 0.0192,0.02905 0.0314,0.06083 0.0508,0.08984 z m -501.238283,4.501953 2.716797,2.876953 c -0.04271,0.09881 -0.115234,0.238282 -0.115234,0.238282 l -0.08594,0.0918 c 0,0 -1.502746,0.870474 -1.777343,1.052735 l -2.904297,-1.935547 c -0.0043,-0.01122 -0.02598,-0.0462 -0.0332,-0.06445 z m 189.537113,0 2.71679,2.876953 c -0.0427,0.09881 -0.11523,0.238282 -0.11523,0.238282 l -0.0859,0.0918 c 0,0 -1.50274,0.870473 -1.77734,1.052735 l -2.9043,-1.935547 c -0.004,-0.01122 -0.026,-0.0462 -0.0332,-0.06445 z m 186.92968,0 2.7168,2.876953 c -0.0427,0.09881 -0.11523,0.238282 -0.11523,0.238282 l -0.0859,0.0918 c 0,0 -1.50275,0.870475 -1.77734,1.052735 l -2.90625,-1.935547 c -0.004,-0.01114 -0.0241,-0.04642 -0.0312,-0.06445 z m 97.96485,1.572266 0.13476,0.160156 c -0.0267,-0.03271 -0.0591,-0.05728 -0.0859,-0.08984 -0.0189,-0.02259 -0.0299,-0.04776 -0.0488,-0.07031 z m 568.61327,0 0.1348,0.160156 c -0.027,-0.03271 -0.059,-0.05728 -0.086,-0.08984 -0.019,-0.0226 -0.03,-0.04775 -0.049,-0.07031 z M 909.78125,37.035156 c -0.38256,0.102649 1.4668,0.820313 1.4668,0.820313 l 0.32226,0.224609 3.46875,4.501953 0.0742,0.232422 -5.625,-5.085937 z m -244.11523,7.798828 -0.10157,0.199219 c 0.0148,-0.02849 0.0224,-0.05938 0.0371,-0.08789 0.0194,-0.03856 0.0451,-0.07269 0.0645,-0.111328 z m -167.02149,7.492188 c 0.0175,0.0056 0.0391,0.0081 0.0566,0.01367 0.0173,0.0054 0.0334,0.01414 0.0508,0.01953 z m 568.61327,0 c 0.017,0.0056 0.039,0.0081 0.057,0.01367 0.017,0.0054 0.033,0.01414 0.051,0.01953 z M 41.535156,64.742187 l -0.0332,0.04102 c 0.0061,-0.0074 0.0095,-0.01607 0.01563,-0.02344 0.0055,-0.0067 0.01207,-0.0109 0.01758,-0.01758 z"
         id="use5"
         transform="matrix(0.64819047,0,0,1.5427564,-2.1622725,-138.83807)"
         class="fromclone"
         style="fill:#ff5555" />
      <text
         xml:space="preserve"
         style="font-weight:bold;font-size:113.667px;line-height:1.25;font-family:Tahoma;-inkscape-font-specification:'Tahoma Bold';fill:#f9f9f9;stroke-width:0.789353"
         x="-175.42114"
         y="63.3923"
         id="text5"
         transform="matrix(0.64819047,0,0,1.5427564,-2.1622247,-138.838)"><tspan
           id="tspan5"
           style="fill:#f9f9f9;stroke-width:0.789353"
           x="-175.42114"
           y="63.3923">Superheroes &amp; Villains</tspan></text>
    </g>
  </g>
</svg>
